# xmcd
#
# Track frame offsets: 
#        150
#        13752
#        26944
#        38448
#        53193
#        65647
#        78867
#        92286
#        105156
#        116255
#        127607
#        140529
#        152110
#        165899
#        179664
#
# Disc length: 2712 seconds
#
# Revision: 2
# Processed by: cddbd v1.5.1PL0 Copyright (c) Steve Scherf et al.
# Submitted via: ExactAudioCopy v0.95b2
#
DISCID=ab0a960f
DTITLE=Various Artist - The Legends Of Black Music Gospel
DYEAR=1900
DGENRE=Blues
TTITLE0=The Dixie Hummingbirds - Moving Up Tha Shinning Way
TTITLE1=The Golden Echoes - Since I Laid My Burden Down(Glory, Glory H
TTITLE1=allelujah)
TTITLE2=Sister Rosetta Tharpe - Up Above My Head
TTITLE3=Mahalia Jackson - It Pays To Serve Jesus
TTITLE4=Bill Landford and The Landfordaires - You Ain't Got Faith
TTITLE5=The R.S.B. Gospel Singers - Father O Pray
TTITLE6=Deep South Boys - Just A Littke Talk With Jesus
TTITLE7=The Fiarfield Four - Does Jesus Care
TTITLE8=The Pilgrim Travelers - Jesus Gave Me Water
TTITLE9=R.H.Harris With The Soul Strippers - I'm Gonna Move In The Roo
TTITLE9=m With The Lord
TTITLE10=The Pilgrim Travelers - Jesus, He's The One
TTITLE11=The Swan Silvertones - All Aboard
TTITLE12=Brother Joe May and The Sallie Martin Singers - I'll Make It So
TTITLE12=mehow
TTITLE13=Mahalia Jackson - It Is No Secret(What God Can Do)
TTITLE14=R.H.Harris With The Soul Strippers - By And By, Part 1 and 2
EXTD=
EXTT0=
EXTT1=
EXTT2=
EXTT3=
EXTT4=
EXTT5=
EXTT6=
EXTT7=
EXTT8=
EXTT9=
EXTT10=
EXTT11=
EXTT12=
EXTT13=
EXTT14=
PLAYORDER=
